<svg width="24" height="25" viewBox="0 0 24 25" fill="none" xmlns="http://www.w3.org/2000/svg">
<g id="people">
<path id="Vector" fill-rule="evenodd" clip-rule="evenodd" d="M15.5 9.79834C15.7652 9.79834 16.0196 9.69298 16.2071 9.50545C16.3946 9.31791 16.5 9.06356 16.5 8.79834C16.5 8.53312 16.3946 8.27877 16.2071 8.09123C16.0196 7.9037 15.7652 7.79834 15.5 7.79834C15.2348 7.79834 14.9804 7.9037 14.7929 8.09123C14.6054 8.27877 14.5 8.53312 14.5 8.79834C14.5 9.06356 14.6054 9.31791 14.7929 9.50545C14.9804 9.69298 15.2348 9.79834 15.5 9.79834ZM15.5 11.2983C16.163 11.2983 16.7989 11.0349 17.2678 10.5661C17.7366 10.0973 18 9.46138 18 8.79834C18 8.1353 17.7366 7.49941 17.2678 7.03057C16.7989 6.56173 16.163 6.29834 15.5 6.29834C14.837 6.29834 14.2011 6.56173 13.7322 7.03057C13.2634 7.49941 13 8.1353 13 8.79834C13 9.46138 13.2634 10.0973 13.7322 10.5661C14.2011 11.0349 14.837 11.2983 15.5 11.2983ZM13.25 17.2983V15.2983C13.25 14.569 12.9603 13.8695 12.4445 13.3538C11.9288 12.8381 11.2293 12.5483 10.5 12.5483H6.5C5.77065 12.5483 5.07118 12.8381 4.55546 13.3538C4.03973 13.8695 3.75 14.569 3.75 15.2983V17.2983H5.25V15.2983C5.25 14.6083 5.81 14.0483 6.5 14.0483H10.5C11.19 14.0483 11.75 14.6083 11.75 15.2983V17.2983H13.25ZM20.25 15.2983V17.2983H18.75V15.2983C18.75 14.6083 18.19 14.0483 17.5 14.0483H15V12.5483H17.5C18.2293 12.5483 18.9288 12.8381 19.4445 13.3538C19.9603 13.8695 20.25 14.569 20.25 15.2983ZM9.5 8.79834C9.5 9.06356 9.39464 9.31791 9.20711 9.50545C9.01957 9.69298 8.76522 9.79834 8.5 9.79834C8.23478 9.79834 7.98043 9.69298 7.79289 9.50545C7.60536 9.31791 7.5 9.06356 7.5 8.79834C7.5 8.53312 7.60536 8.27877 7.79289 8.09123C7.98043 7.9037 8.23478 7.79834 8.5 7.79834C8.76522 7.79834 9.01957 7.9037 9.20711 8.09123C9.39464 8.27877 9.5 8.53312 9.5 8.79834ZM11 8.79834C11 9.46138 10.7366 10.0973 10.2678 10.5661C9.79893 11.0349 9.16304 11.2983 8.5 11.2983C7.83696 11.2983 7.20107 11.0349 6.73223 10.5661C6.26339 10.0973 6 9.46138 6 8.79834C6 8.1353 6.26339 7.49941 6.73223 7.03057C7.20107 6.56173 7.83696 6.29834 8.5 6.29834C9.16304 6.29834 9.79893 6.56173 10.2678 7.03057C10.7366 7.49941 11 8.1353 11 8.79834Z" fill="#ABA3A3"/>
</g>
</svg>
