<svg width="24" height="25" viewBox="0 0 24 25" fill="none" xmlns="http://www.w3.org/2000/svg">
<g id="tool">
<path id="Vector" d="M14.1029 7.42649L16.3629 5.16649C15.6756 4.9214 14.9344 4.86896 14.2195 5.01485C13.5046 5.16074 12.8432 5.4994 12.3069 5.99418C11.7706 6.48895 11.3799 7.12098 11.177 7.82186C10.9741 8.52274 10.9668 9.26576 11.1559 9.97049L5.82786 15.2985C5.63684 15.483 5.48448 15.7037 5.37966 15.9477C5.27484 16.1917 5.21967 16.4541 5.21736 16.7197C5.21505 16.9852 5.26566 17.2486 5.36622 17.4944C5.46678 17.7402 5.61529 17.9635 5.80307 18.1513C5.99086 18.3391 6.21416 18.4876 6.45995 18.5881C6.70575 18.6887 6.96911 18.7393 7.23466 18.737C7.50022 18.7347 7.76266 18.6795 8.00667 18.5747C8.25068 18.4699 8.47137 18.3175 8.65586 18.1265L13.9849 12.7985C14.6897 12.9877 15.4329 12.9804 16.1339 12.7775C16.8349 12.5745 17.467 12.1837 17.9618 11.6473C18.4566 11.1109 18.7953 10.4493 18.9411 9.73422C19.0868 9.01914 19.0342 8.2778 18.7889 7.59049L16.5279 9.85049L14.6159 9.33849L14.1029 7.42649ZM6.88886 17.0665C6.84111 17.0204 6.80302 16.9652 6.77681 16.9042C6.75061 16.8432 6.73681 16.7776 6.73624 16.7112C6.73566 16.6448 6.74831 16.579 6.77345 16.5175C6.79859 16.4561 6.83572 16.4002 6.88266 16.3533C6.92961 16.3063 6.98544 16.2692 7.04688 16.2441C7.10833 16.2189 7.17417 16.2063 7.24056 16.2069C7.30695 16.2074 7.37256 16.2212 7.43356 16.2474C7.49457 16.2736 7.54974 16.3117 7.59586 16.3595C7.68694 16.4538 7.73734 16.5801 7.7362 16.7112C7.73506 16.8423 7.68247 16.9677 7.58977 17.0604C7.49707 17.1531 7.37166 17.2057 7.24056 17.2068C7.10946 17.208 6.98316 17.1576 6.88886 17.0665Z" fill="#ABA3A3"/>
</g>
</svg>
