<svg width="24" height="24" viewBox="0 0 24 24" fill="none" xmlns="http://www.w3.org/2000/svg">
<g id="cog">
<path id="Vector" fill-rule="evenodd" clip-rule="evenodd" d="M10.2892 4.836C10.328 4.6025 10.4484 4.39034 10.6289 4.23726C10.8095 4.08418 11.0385 4.00011 11.2752 4H12.5812C12.818 3.99987 13.0473 4.08384 13.228 4.23694C13.4088 4.39004 13.5293 4.60233 13.5682 4.836L13.8122 6.302C14.5992 6.562 15.3152 6.981 15.9202 7.52L17.3132 6.998C17.5348 6.91523 17.7786 6.91372 18.0012 6.99373C18.2239 7.07374 18.4109 7.23009 18.5292 7.435L19.1822 8.565C19.3008 8.77005 19.3429 9.01056 19.3007 9.2437C19.2586 9.47683 19.1351 9.68744 18.9522 9.838L17.8042 10.782C17.9699 11.5852 17.9699 12.4138 17.8042 13.217L18.9532 14.163C19.1358 14.3135 19.2592 14.5239 19.3013 14.7568C19.3434 14.9898 19.3016 15.2301 19.1832 15.435L18.5302 16.565C18.4119 16.7699 18.2249 16.9263 18.0022 17.0063C17.7796 17.0863 17.5358 17.0848 17.3142 17.002L15.9202 16.48C15.3152 17.02 14.6002 17.438 13.8122 17.698L13.5682 19.164C13.5293 19.3977 13.4088 19.61 13.228 19.7631C13.0473 19.9162 12.818 20.0001 12.5812 20H11.2752C11.0385 19.9999 10.8095 19.9158 10.6289 19.7627C10.4484 19.6097 10.328 19.3975 10.2892 19.164L10.0452 17.698C9.26659 17.4405 8.54913 17.0259 7.93717 16.48L6.54317 17.002C6.32153 17.0851 6.07759 17.0869 5.85474 17.0071C5.6319 16.9273 5.4446 16.771 5.32617 16.566L4.67317 15.435C4.55477 15.2301 4.51291 14.9898 4.55502 14.7568C4.59714 14.5239 4.7205 14.3135 4.90317 14.163L6.05217 13.217C5.88647 12.4138 5.88647 11.5852 6.05217 10.782L4.90417 9.838C4.7215 9.68749 4.59814 9.47707 4.55602 9.24416C4.51391 9.01125 4.55577 8.77095 4.67417 8.566L5.32717 7.435C5.44544 7.22986 5.63268 7.07335 5.85553 6.99333C6.07839 6.91331 6.32242 6.91496 6.54417 6.998L7.93717 7.52C8.54912 6.97407 9.26658 6.55952 10.0452 6.302L10.2892 4.836ZM14.9292 12C14.9292 12.394 14.8516 12.7841 14.7008 13.1481C14.55 13.512 14.3291 13.8427 14.0505 14.1213C13.7719 14.3999 13.4412 14.6209 13.0772 14.7716C12.7132 14.9224 12.3231 15 11.9292 15C11.5352 15 11.1451 14.9224 10.7811 14.7716C10.4171 14.6209 10.0864 14.3999 9.80785 14.1213C9.52927 13.8427 9.30829 13.512 9.15753 13.1481C9.00677 12.7841 8.92917 12.394 8.92917 12C8.92917 11.2044 9.24524 10.4413 9.80785 9.87868C10.3705 9.31607 11.1335 9 11.9292 9C12.7248 9 13.4879 9.31607 14.0505 9.87868C14.6131 10.4413 14.9292 11.2044 14.9292 12Z" fill="#ABA3A3"/>
</g>
</svg>
