<svg width="24" height="25" viewBox="0 0 24 25" fill="none" xmlns="http://www.w3.org/2000/svg">
<g id="currency-dollar">
<path id="Vector" d="M3.25 12.2983C3.25 9.9777 4.17187 7.7521 5.81282 6.11116C7.45376 4.47021 9.67936 3.54834 12 3.54834C14.3206 3.54834 16.5462 4.47021 18.1872 6.11116C19.8281 7.7521 20.75 9.9777 20.75 12.2983C20.75 14.619 19.8281 16.8446 18.1872 18.4855C16.5462 20.1265 14.3206 21.0483 12 21.0483C9.67936 21.0483 7.45376 20.1265 5.81282 18.4855C4.17187 16.8446 3.25 14.619 3.25 12.2983ZM12 5.04834C11.0479 5.04834 10.1052 5.23587 9.22554 5.60021C8.34593 5.96456 7.5467 6.49859 6.87348 7.17182C6.20025 7.84504 5.66622 8.64427 5.30187 9.52388C4.93753 10.4035 4.75 11.3463 4.75 12.2983C4.75 13.2504 4.93753 14.1932 5.30187 15.0728C5.66622 15.9524 6.20025 16.7516 6.87348 17.4249C7.5467 18.0981 8.34593 18.6321 9.22554 18.9965C10.1052 19.3608 11.0479 19.5483 12 19.5483C13.9228 19.5483 15.7669 18.7845 17.1265 17.4249C18.4862 16.0652 19.25 14.2212 19.25 12.2983C19.25 10.3755 18.4862 8.53145 17.1265 7.17182C15.7669 5.81218 13.9228 5.04834 12 5.04834ZM10.662 9.92534C10.348 10.1453 10.25 10.3773 10.25 10.5483C10.25 10.7193 10.348 10.9513 10.662 11.1713C10.974 11.3893 11.445 11.5483 12 11.5483C12.825 11.5483 13.605 11.7813 14.198 12.1963C14.788 12.6103 15.25 13.2533 15.25 14.0483C15.25 14.8433 14.789 15.4863 14.198 15.9003C13.788 16.1863 13.291 16.3863 12.75 16.4823V16.7983C12.75 16.9973 12.671 17.188 12.5303 17.3287C12.3897 17.4693 12.1989 17.5483 12 17.5483C11.8011 17.5483 11.6103 17.4693 11.4697 17.3287C11.329 17.188 11.25 16.9973 11.25 16.7983V16.4823C10.7309 16.3953 10.2369 16.1967 9.802 15.9003C9.212 15.4863 8.75 14.8433 8.75 14.0483C8.75 13.8494 8.82902 13.6587 8.96967 13.518C9.11032 13.3774 9.30109 13.2983 9.5 13.2983C9.69891 13.2983 9.88968 13.3774 10.0303 13.518C10.171 13.6587 10.25 13.8494 10.25 14.0483C10.25 14.2193 10.348 14.4513 10.662 14.6713C10.974 14.8893 11.445 15.0483 12 15.0483C12.555 15.0483 13.026 14.8893 13.338 14.6713C13.652 14.4513 13.75 14.2193 13.75 14.0483C13.75 13.8773 13.652 13.6453 13.338 13.4253C13.026 13.2073 12.555 13.0483 12 13.0483C11.175 13.0483 10.395 12.8153 9.802 12.4003C9.212 11.9863 8.75 11.3433 8.75 10.5483C8.75 9.75334 9.211 9.11034 9.802 8.69634C10.2369 8.39994 10.7309 8.20137 11.25 8.11434V7.79834C11.25 7.59943 11.329 7.40866 11.4697 7.26801C11.6103 7.12736 11.8011 7.04834 12 7.04834C12.1989 7.04834 12.3897 7.12736 12.5303 7.26801C12.671 7.40866 12.75 7.59943 12.75 7.79834V8.11434C13.29 8.21034 13.789 8.41034 14.198 8.69634C14.788 9.11034 15.25 9.75334 15.25 10.5483C15.25 10.7473 15.171 10.938 15.0303 11.0787C14.8897 11.2193 14.6989 11.2983 14.5 11.2983C14.3011 11.2983 14.1103 11.2193 13.9697 11.0787C13.829 10.938 13.75 10.7473 13.75 10.5483C13.75 10.3773 13.652 10.1453 13.338 9.92534C13.026 9.70734 12.555 9.54834 12 9.54834C11.445 9.54834 10.974 9.70734 10.662 9.92534Z" fill="#ABA3A3"/>
</g>
</svg>
