<svg width="24" height="24" viewBox="0 0 24 24" fill="none" xmlns="http://www.w3.org/2000/svg">
<g id="help">
<path id="Vector" d="M12 4.75C11.0479 4.75 10.1052 4.93753 9.22554 5.30187C8.34593 5.66622 7.5467 6.20025 6.87348 6.87348C6.20025 7.5467 5.66622 8.34593 5.30187 9.22554C4.93753 10.1052 4.75 11.0479 4.75 12C4.75 12.9521 4.93753 13.8948 5.30187 14.7745C5.66622 15.6541 6.20025 16.4533 6.87348 17.1265C7.5467 17.7997 8.34593 18.3338 9.22554 18.6981C10.1052 19.0625 11.0479 19.25 12 19.25C13.9228 19.25 15.7669 18.4862 17.1265 17.1265C18.4862 15.7669 19.25 13.9228 19.25 12C19.25 10.0772 18.4862 8.23311 17.1265 6.87348C15.7669 5.51384 13.9228 4.75 12 4.75ZM3.25 12C3.25 9.67936 4.17187 7.45376 5.81282 5.81282C7.45376 4.17187 9.67936 3.25 12 3.25C14.3206 3.25 16.5462 4.17187 18.1872 5.81282C19.8281 7.45376 20.75 9.67936 20.75 12C20.75 14.3206 19.8281 16.5462 18.1872 18.1872C16.5462 19.8281 14.3206 20.75 12 20.75C9.67936 20.75 7.45376 19.8281 5.81282 18.1872C4.17187 16.5462 3.25 14.3206 3.25 12ZM12 8.75C12.3823 8.75148 12.7497 8.89891 13.027 9.16216C13.3042 9.4254 13.4705 9.7846 13.4918 10.1663C13.5132 10.5481 13.3879 10.9236 13.1417 11.216C12.8954 11.5085 12.5468 11.6959 12.167 11.74C11.702 11.792 11.25 12.18 11.25 12.75V14H12.75V13.155C13.2933 13.0147 13.7863 12.7249 14.1731 12.3185C14.56 11.912 14.825 11.4053 14.9383 10.8557C15.0515 10.3062 15.0084 9.73588 14.8137 9.20962C14.6191 8.68337 14.2808 8.22225 13.8372 7.87863C13.3937 7.53502 12.8626 7.32268 12.3044 7.26575C11.7462 7.20881 11.1833 7.30956 10.6794 7.55654C10.1756 7.80352 9.7512 8.18684 9.45432 8.66296C9.15745 9.13908 9.00005 9.68891 9 10.25H10.5C10.5 9.85218 10.658 9.47064 10.9393 9.18934C11.2206 8.90804 11.6022 8.75 12 8.75ZM11.25 15V16.5H12.75V15H11.25Z" fill="#ABA3A3"/>
</g>
</svg>
