<svg width="24" height="25" viewBox="0 0 24 25" fill="none" xmlns="http://www.w3.org/2000/svg">
<g id="wordpress">
<path id="Vector" d="M22 12.2983C22 6.78834 17.51 2.29834 12 2.29834C6.48 2.29834 2 6.78834 2 12.2983C2 17.8183 6.48 22.2983 12 22.2983C17.51 22.2983 22 17.8183 22 12.2983ZM9.78 17.6683L6.37 8.51834C6.92 8.49834 7.54 8.43834 7.54 8.43834C8.04 8.37834 7.98 7.30834 7.48 7.32834C7.48 7.32834 6.03 7.43834 5.11 7.43834C4.93 7.43834 4.74 7.43834 4.53 7.42834C6.12 4.98834 8.87 3.40834 12 3.40834C14.33 3.40834 16.45 4.27834 18.05 5.74834C17.37 5.63834 16.4 6.13834 16.4 7.32834C16.4 8.06834 16.85 8.68834 17.3 9.42834C17.65 10.0383 17.85 10.7883 17.85 11.8883C17.85 13.3783 16.45 16.8883 16.45 16.8883L13.42 8.51834C13.96 8.49834 14.24 8.34834 14.24 8.34834C14.74 8.29834 14.68 7.09834 14.18 7.12834C14.18 7.12834 12.74 7.24834 11.8 7.24834C10.93 7.24834 9.47 7.12834 9.47 7.12834C8.97 7.09834 8.91 8.32834 9.41 8.34834L10.33 8.42834L11.59 11.8383L9.78 17.6683ZM19.41 12.2983C19.65 11.6583 20.15 10.4283 19.84 8.04834C20.54 9.33834 20.89 10.7583 20.89 12.2983C20.89 15.5883 19.16 18.5383 16.49 20.0783C17.46 17.4883 18.43 14.8783 19.41 12.2983ZM8.1 20.3883C5.12 18.9483 3.11 15.8283 3.11 12.2983C3.11 10.9983 3.34 9.81834 3.83 8.70834C5.25 12.5983 6.67 16.4983 8.1 20.3883ZM12.13 13.7583L14.71 20.7383C13.85 21.0283 12.95 21.1883 12 21.1883C11.21 21.1883 10.43 21.0783 9.71 20.8583C10.52 18.4783 11.33 16.1183 12.13 13.7583Z" fill="white"/>
</g>
</svg>
