<svg width="20" height="20" viewBox="0 0 20 20" fill="none" xmlns="http://www.w3.org/2000/svg">
<g id="wordpress">
<path id="Vector" d="M18.3332 9.99984C18.3332 5.40817 14.5915 1.6665 9.99984 1.6665C5.39984 1.6665 1.6665 5.40817 1.6665 9.99984C1.6665 14.5998 5.39984 18.3332 9.99984 18.3332C14.5915 18.3332 18.3332 14.5998 18.3332 9.99984ZM8.14984 14.4748L5.30817 6.84984C5.7665 6.83317 6.28317 6.78317 6.28317 6.78317C6.69984 6.73317 6.64984 5.8415 6.23317 5.85817C6.23317 5.85817 5.02484 5.94984 4.25817 5.94984C4.10817 5.94984 3.94984 5.94984 3.77484 5.9415C5.09984 3.90817 7.3915 2.5915 9.99984 2.5915C11.9415 2.5915 13.7082 3.3165 15.0415 4.5415C14.4748 4.44984 13.6665 4.8665 13.6665 5.85817C13.6665 6.47484 14.0415 6.9915 14.4165 7.60817C14.7082 8.1165 14.8748 8.7415 14.8748 9.65817C14.8748 10.8998 13.7082 13.8248 13.7082 13.8248L11.1832 6.84984C11.6332 6.83317 11.8665 6.70817 11.8665 6.70817C12.2832 6.6665 12.2332 5.6665 11.8165 5.6915C11.8165 5.6915 10.6165 5.7915 9.83317 5.7915C9.10817 5.7915 7.8915 5.6915 7.8915 5.6915C7.47484 5.6665 7.42484 6.6915 7.8415 6.70817L8.60817 6.77484L9.65817 9.6165L8.14984 14.4748ZM16.1748 9.99984C16.3748 9.4665 16.7915 8.4415 16.5332 6.45817C17.1165 7.53317 17.4082 8.7165 17.4082 9.99984C17.4082 12.7415 15.9665 15.1998 13.7415 16.4832C14.5498 14.3248 15.3582 12.1498 16.1748 9.99984ZM6.74984 16.7415C4.2665 15.5415 2.5915 12.9415 2.5915 9.99984C2.5915 8.9165 2.78317 7.93317 3.1915 7.00817C4.37484 10.2498 5.55817 13.4998 6.74984 16.7415ZM10.1082 11.2165L12.2582 17.0332C11.5415 17.2748 10.7915 17.4082 9.99984 17.4082C9.3415 17.4082 8.6915 17.3165 8.0915 17.1332C8.7665 15.1498 9.4415 13.1832 10.1082 11.2165Z" fill="white"/>
</g>
</svg>
