<svg width="16" height="16" viewBox="0 0 16 16" fill="none" xmlns="http://www.w3.org/2000/svg">
<g id="external">
<path id="Vector" d="M12.1331 11.3333C12.1331 11.8 11.7331 12.1333 11.3331 12.1333H4.66647C4.1998 12.1333 3.86647 11.7333 3.86647 11.3333V4.66667C3.86647 4.2 4.26647 3.86667 4.66647 3.86667H6.7998V2.8H4.66647C3.66647 2.8 2.7998 3.66667 2.7998 4.66667V11.3333C2.7998 12.3333 3.5998 13.2 4.66647 13.2H11.3331C12.3331 13.2 13.1998 12.4 13.1998 11.3333V8.93333H12.1998V11.3333H12.1331ZM9.93314 2V3H12.3998L8.13314 7.26667L8.86647 8L13.1331 3.73333V6.2H14.1331V2H9.93314Z" fill="white"/>
</g>
</svg>
